<svg width="24" height="24" xmlns="http://www.w3.org/2000/svg">

 <g>
  <title>background</title>
  <rect fill="none" id="canvas_background" height="402" width="582" y="-1" x="-1"/>
 </g>
 <g>
  <title>Layer 1</title>
  <path fill="#ffffff" id="svg_1" d="m20,11c0,-4.9 -3.499,-9.1 -8.32,-9.983l-0.18,-0.034l-0.18,0.033c-4.821,0.884 -8.32,5.084 -8.32,9.984c0,4.617 3.108,8.61 7.5,9.795l0,1.205c0,0.553 0.448,1 1,1s1,-0.447 1,-1l0,-1.205c4.392,-1.185 7.5,-5.178 7.5,-9.795zm-7.5,7.7l0,-2.993l4.354,-4.354c0.195,-0.195 0.195,-0.512 0,-0.707s-0.512,-0.195 -0.707,0l-3.647,3.647l0,-3.586l2.354,-2.354c0.195,-0.195 0.195,-0.512 0,-0.707s-0.512,-0.195 -0.707,0l-1.647,1.647l0,-3.293c0,-0.553 -0.448,-1 -1,-1s-1,0.447 -1,1l0,3.293l-1.646,-1.647c-0.195,-0.195 -0.512,-0.195 -0.707,0s-0.195,0.512 0,0.707l2.354,2.354l0,3.586l-3.646,-3.646c-0.195,-0.195 -0.512,-0.195 -0.707,0s-0.195,0.512 0,0.707l4.354,4.354l0,2.992c-3.249,-1.116 -5.502,-4.179 -5.502,-7.7c0,-3.874 2.723,-7.201 6.5,-7.981c3.777,0.78 6.5,4.107 6.5,7.981c0,3.521 -2.253,6.584 -5.5,7.7z"/>
 </g>
</svg>