<svg width="24" height="24" xmlns="http://www.w3.org/2000/svg">

 <g>
  <title>background</title>
  <rect fill="none" id="canvas_background" height="402" width="582" y="-1" x="-1"/>
 </g>
 <g>
  <title>Layer 1</title>
  <path fill="#ffffff" id="svg_1" d="m19.996,13.507l-5.996,-3.426l0,-5.956c0,-0.827 -0.673,-1.5 -1.5,-1.5s-1.5,0.673 -1.5,1.5l0,5.956l-5.996,3.426c-0.439,0.251 -0.622,0.79 -0.426,1.256c0.197,0.466 0.711,0.713 1.196,0.573l5.226,-1.492l0,4.451l-1.625,1.3c-0.387,0.31 -0.488,0.856 -0.239,1.284s0.776,0.608 1.235,0.425l2.129,-0.852l2.129,0.852c0.121,0.048 0.247,0.071 0.371,0.071c0.347,0 0.681,-0.181 0.864,-0.497c0.249,-0.428 0.147,-0.975 -0.239,-1.284l-1.625,-1.3l0,-4.451l5.226,1.493c0.091,0.026 0.184,0.039 0.274,0.039c0.394,0 0.762,-0.233 0.922,-0.612c0.196,-0.466 0.014,-1.005 -0.426,-1.256zm-7.496,-9.132c-0.276,0 -0.5,-0.224 -0.5,-0.5s0.224,-0.5 0.5,-0.5s0.5,0.224 0.5,0.5s-0.224,0.5 -0.5,0.5z"/>
 </g>
</svg>